<svg xmlns="http://www.w3.org/2000/svg" viewBox="0 0 1200 780" role="img" aria-label="Y6 and Su Xiao as lifelong companions">
  <defs>
    <linearGradient id="hall" x1="0" y1="0" x2="1" y2="1">
      <stop offset="0" stop-color="#111827"/>
      <stop offset=".55" stop-color="#172554"/>
      <stop offset="1" stop-color="#09111f"/>
    </linearGradient>
    <radialGradient id="gold" cx="50%" cy="18%" r="46%">
      <stop offset="0" stop-color="#f2c66d" stop-opacity=".45"/>
      <stop offset="1" stop-color="#f2c66d" stop-opacity="0"/>
    </radialGradient>
  </defs>
  <rect width="1200" height="780" fill="url(#hall)"/>
  <rect width="1200" height="780" fill="url(#gold)"/>
  <path d="M160 610 V190 H1040 V610" fill="#101827" stroke="#f2c66d" stroke-width="8"/>
  <path d="M270 610 V275 H930 V610" fill="#16233d"/>
  <circle cx="600" cy="300" r="82" fill="#f2c66d" opacity=".42"/>
  <g transform="translate(505 460)">
    <circle cx="0" cy="-62" r="40" fill="#f1d1b3"/>
    <path d="M-58 90 C-48 10 -28 -22 0 -22 C30 -22 50 10 62 90 Z" fill="#26344f"/>
    <circle cx="190" cy="-62" r="40" fill="#efc7aa"/>
    <path d="M130 90 C140 10 162 -22 190 -22 C218 -22 240 10 250 90 Z" fill="#63456d"/>
    <path d="M62 12 C98 42 128 42 130 12" fill="none" stroke="#70d6c4" stroke-width="9" stroke-linecap="round"/>
  </g>
  <g fill="#fff8dd" opacity=".82">
    <circle cx="290" cy="250" r="3"/><circle cx="356" cy="330" r="2"/><circle cx="840" cy="255" r="3"/><circle cx="900" cy="344" r="2"/>
  </g>
  <text x="76" y="704" fill="#fff2c9" font-family="Microsoft YaHei, Noto Sans SC, Arial" font-size="38" font-weight="800">星图另一端的同行者</text>
</svg>
