<svg xmlns="http://www.w3.org/2000/svg" viewBox="0 0 1200 780" role="img" aria-label="Letters between Y6 and Su Xiao">
  <defs>
    <linearGradient id="desk" x1="0" y1="0" x2="1" y2="1">
      <stop offset="0" stop-color="#2b233a"/>
      <stop offset=".55" stop-color="#111b35"/>
      <stop offset="1" stop-color="#07101c"/>
    </linearGradient>
  </defs>
  <rect width="1200" height="780" fill="url(#desk)"/>
  <circle cx="955" cy="130" r="150" fill="#f2c66d" opacity=".16"/>
  <rect x="156" y="145" width="400" height="520" rx="12" fill="#efe4cc" transform="rotate(-7 356 405)"/>
  <rect x="604" y="158" width="390" height="500" rx="12" fill="#f6edd8" transform="rotate(6 799 408)"/>
  <g stroke="#59617b" stroke-width="5" stroke-linecap="round" opacity=".85">
    <path d="M238 250 H470"/><path d="M230 315 H455"/><path d="M222 380 H430"/>
    <path d="M676 260 H905"/><path d="M685 325 H920"/><path d="M694 390 H870"/>
  </g>
  <g fill="none" stroke="#70d6c4" stroke-width="7" stroke-linecap="round">
    <path d="M350 510 C410 455 465 455 524 515"/>
    <path d="M705 500 C765 450 825 452 884 510"/>
  </g>
  <path d="M554 395 C585 350 620 350 648 395 C676 350 714 350 742 395 C708 460 650 506 648 508 C646 506 588 460 554 395 Z" fill="#ff8f70" opacity=".9"/>
  <text x="76" y="704" fill="#fff2c9" font-family="Microsoft YaHei, Noto Sans SC, Arial" font-size="38" font-weight="800">长信里的心事</text>
</svg>
